<?xml version="1.0" encoding="utf-8"?>
<!-- Generator: Adobe Illustrator 25.4.1, SVG Export Plug-In . SVG Version: 6.00 Build 0)  -->
<svg version="1.1" id="Layer_1" xmlns="http://www.w3.org/2000/svg" xmlns:xlink="http://www.w3.org/1999/xlink" x="0px" y="0px"
	 viewBox="0 0 537.7 116.4" enable-background="new 0 0 537.7 116.4" xml:space="preserve">
<g>
	<path fill="#FFFFFF" d="M537.6,84.6v-4.9c-1.8-0.4-4-0.8-6.1-1V59c0-6.5-2.6-11.7-11-11.7c-5.9,0-10.3,3-12.4,7.6l-0.1-0.1
		c0.4-2,0.6-5.1,0.6-7.4V30.9c-4.8-0.2-10.1,0.1-14.2,0.5v4.9c2.1,0.1,4.6,0.4,6.4,0.7v41.8c-2.2,0.1-4.5,0.5-6.4,1v4.9h19.8v-4.9
		c-1.7-0.4-3.7-0.7-5.7-0.9V67c0-7.4,4.1-13.2,9.6-13.2c4.3,0,5.4,2.6,5.4,7.2v23.5L537.6,84.6L537.6,84.6z M490.6,83.3l-0.5-6.8
		c-2.4,1.1-5.6,1.8-8.5,1.8c-8,0-10.5-4.9-10.5-12.1c0-7.6,3.5-12.5,9.6-12.5c1.4,0,2.8,0.2,3.9,0.5c0.1,1.7,0.4,3.5,0.8,5.5h5v-11
		c-2.6-0.8-5.8-1.2-8.7-1.2c-12.8,0-18.7,8.5-18.7,20.1c0,13,7.2,17.6,17,17.6C484.2,85.2,487.8,84.3,490.6,83.3 M449.2,61.3h-15.5
		c0.7-4.9,3.7-8.2,8.2-8.2C446.5,53.1,449.3,56.3,449.2,61.3 M457,63.1c0-8.7-4.5-15.8-14.9-15.8c-10.7,0-16.7,8.2-16.7,19.3
		c0,12.9,6.2,18.7,17.6,18.7c4.5,0,9-0.8,12.6-2.4l-0.7-6.2c-3,1.5-6.9,2.4-10.7,2.4c-7.3,0-11-3.8-10.8-12.3h23.3
		C457,65.4,457,64.1,457,63.1 M425.1,35h-39.5v13.1h5.7c0.4-2.6,0.8-4.7,1-6.5h9v37.3c-2.2,0.1-4.5,0.5-6.4,1v4.9h20.8v-4.9
		c-1.9-0.4-4.2-0.8-6.4-1V41.5h9c0.1,1.8,0.6,4,1,6.5h5.7L425.1,35L425.1,35z M369,84.6h14v-4.9c-1.8-0.4-4-0.8-6.1-1V59
		c0-6.5-2.6-11.7-11-11.7c-6.1,0-10.5,3.2-12.6,7.9l-0.1-0.1c0.4-2.1,0.6-5.2,0.6-7.1c-4.5-0.2-9.8,0.1-13.9,0.5v4.9
		c2.1,0.1,4.6,0.4,6.4,0.7v24.6c-2.2,0.1-4.5,0.5-6.4,1v4.9h19.8v-4.9c-1.7-0.4-3.7-0.7-5.7-0.9V66.9c0-7.3,4.1-13.1,9.6-13.1
		c4.2,0,5.4,2.6,5.4,7.2L369,84.6L369,84.6z M336.3,84.6v-4.9c-1.8-0.4-4-0.8-6.1-1V48.1c-4.8-0.2-10.1,0.1-14.2,0.5v4.9
		c2.1,0.1,4.6,0.4,6.4,0.7v24.6c-2.2,0.1-4.5,0.5-6.4,1v4.9h20.3V84.6z M331.3,37.7c0-2.8-2.3-4.9-5.1-4.9c-2.8,0-5,2.2-5,4.9
		s2.2,4.9,5,4.9C329.1,42.6,331.3,40.4,331.3,37.7 M298.5,68.9c0,5.2-3.6,10.4-9,10.4c-3.1,0-5-1.8-5-4.6c0-3.5,3.3-6.5,14-6.5V68.9
		z M312.5,84.1v-4.9c-1.9-0.1-4.3-0.4-6.1-0.7V59.7c0-7.5-3.1-12.4-14.3-12.4c-4.7,0-9,0.8-12.6,2v10.4h4.9c0.3-1.9,0.7-3.7,0.8-5.4
		c1.8-0.5,4-0.8,6-0.8c5.6,0,7.3,2.4,7.3,7v2.6c-13.2,0.1-21.5,4.7-21.5,13.1c0,5.8,4,9.3,10.2,9.3c5.8,0,10.4-3.2,12.1-7.6l0.1,0.1
		c-0.3,2-0.4,4.4-0.4,6.8C303.3,84.8,308.6,84.5,312.5,84.1 M273.8,47.3c-7.6-0.7-11.2,3.9-12.9,8.8h-0.1c0.4-2.8,0.7-6,0.7-8.1
		c-4.5-0.2-9.8,0.1-13.9,0.5v4.9c2.1,0.1,4.6,0.4,6.4,0.7v24.6c-2.2,0.1-4.5,0.5-6.4,1v4.9h20.6v-4.9c-1.9-0.4-4.2-0.8-6.4-1v-9
		c0-11,3.6-16,11.6-14.7L273.8,47.3z M233.7,69.7c0,5-3.5,8.5-10.7,8.5c-2.6,0-4.6-0.1-5.8-0.4V62.1c1.1-0.1,3.7-0.1,4.5-0.1
		C228.6,62,233.7,64.1,233.7,69.7 M232.7,48.1c0,5-3.9,8-11.3,8c-1.6,0-3,0-4.3-0.1V41.3c1.9-0.1,4-0.1,6.2-0.1
		C230.5,41.1,232.7,44,232.7,48.1 M242.1,69.6c0-5.1-3-10.1-9.5-11.3v-0.1c5.1-1.8,8.5-6.2,8.5-11.3c0-7.6-5.6-12.1-16.4-12.1
		c-6,0-12,0.2-15.7,0.2h-6.2v4.9c1.9,0.4,4.2,0.8,6.4,1v38c-2.2,0.1-4.5,0.5-6.4,1v4.9h6.4c5.4,0,10.4,0.2,13.5,0.2
		C237.9,84.8,242.1,76.1,242.1,69.6 M197.5,62.9h-17.6v6.3h17.6V62.9z M175,84.6v-4.9c-1.8-0.4-4-0.8-6.1-1V48.1
		c-4.8-0.2-10.1,0.1-14.2,0.5v4.9c2.1,0.1,4.6,0.4,6.4,0.7v24.6c-2.2,0.1-4.5,0.5-6.4,1v4.9H175V84.6z M170.1,37.7
		c0-2.8-2.3-4.9-5.1-4.9s-5,2.2-5,4.9s2.2,4.9,5,4.9C167.8,42.6,170.1,40.4,170.1,37.7"/>
</g>
<g>
	<path fill="#FFFFFF" d="M117.1,89.5c-15.5,0-21.9-10.8-26.4-24.2c-7.3,13.3-16.6,24.2-31.4,24.2c-17.5,0-31.8-14.2-31.8-31.8
		S41.8,26,59.3,26C74.2,26,85.2,36.8,91,57.4c0.1,0.4,0.2,0.7,0.3,1.1c0.2-0.3,0.3-0.6,0.5-0.9c4.8-9.8,13-26.1,23.5-47.2l2.3,1.2
		c-10.5,21.1-18.7,37.4-23.5,47.2c-0.6,1.2-1.2,2.3-1.7,3.4c2,6.3,4.3,12.3,7.6,16.7c4.2,5.5,9.6,8.1,17.1,8.1
		c6.5,0,12.4-2.8,15.6-7.2l2.1,1.5C131.1,86.3,124.3,89.5,117.1,89.5z M59.3,28.6c-16.1,0-29.1,13.1-29.1,29.1s13.1,29.1,29.1,29.1
		c14.9,0,23.6-12.2,30.3-25.1c-0.4-1.2-0.7-2.5-1.1-3.7C84.6,44.6,76.5,28.6,59.3,28.6z"/>
</g>
<g>
	<path fill="#FFFFFF" d="M112.9,38.5c-4.3,8.7-8.6,17.2-11.8,23.7c-0.1,0.2-0.2,0.4-0.3,0.5c3.4,10,6.7,14.4,11.8,15.7
		c2.3-6.3,3.6-13.1,3.6-20.2C116.4,51.3,115.2,44.6,112.9,38.5z"/>
	<path fill="#FFFFFF" d="M89.3,81.7c-6.9,8.4-16.5,15.7-30,15.7c-21.9,0-39.7-17.8-39.7-39.7s17.8-39.7,39.7-39.7
		c13.8,0,25.1,7.3,32.8,21c3.2-6.3,6.5-13.1,9.7-19.5C91.1,7.6,75.5,0,58.2,0C26.1,0,0,26.1,0,58.2s26.1,58.2,58.2,58.2
		c18.3,0,34.6-8.5,45.3-21.7C97.1,91.9,92.6,87.1,89.3,81.7z"/>
	<path fill="#FFFFFF" d="M59.3,36.5c-11.7,0-21.2,9.5-21.2,21.2s9.5,21.2,21.2,21.2c9.1,0,15.4-6.7,21.8-18
		c-0.1-0.2-0.1-0.4-0.2-0.6C76.3,44.5,69.1,36.5,59.3,36.5z"/>
</g>
</svg>
