<?xml version="1.0" encoding="utf-8"?>
<!-- Generator: Adobe Illustrator 25.4.1, SVG Export Plug-In . SVG Version: 6.00 Build 0)  -->
<svg version="1.1" id="Layer_1" xmlns="http://www.w3.org/2000/svg" xmlns:xlink="http://www.w3.org/1999/xlink" x="0px" y="0px"
	 viewBox="0 0 537.7 499.4" enable-background="new 0 0 537.7 499.4" xml:space="preserve">
<g>
	<path fill="#123358" d="M537.7,498.4v-6.8c-2.5-0.6-5.7-1.1-8.6-1.3v-27.8c0-9.1-3.7-16.4-15.4-16.4c-8.3,0-14.5,4.2-17.4,10.6
		l-0.1-0.1c0.6-2.8,0.8-7.1,0.8-10.3V423c-6.7-0.3-14.1,0.1-19.9,0.7v6.8c3,0.2,6.5,0.6,9,1v58.6c-3.1,0.2-6.3,0.7-9,1.3v6.8H505
		v-6.9c-2.4-0.6-5.3-1-7.9-1.2v-16.5c0-10.3,5.8-18.5,13.4-18.5c6,0,7.6,3.7,7.6,10.1v33h19.6V498.4z M471.7,496.6l-0.7-9.5
		c-3.4,1.5-7.8,2.6-11.9,2.6c-11.3,0-14.8-6.9-14.8-16.9c0-10.7,5-17.5,13.4-17.5c2,0,3.9,0.3,5.5,0.7c0.2,2.4,0.6,5,1.1,7.7h7V448
		c-3.6-1.1-8.2-1.8-12.2-1.8c-18,0-26.3,11.9-26.3,28.2c0,18.3,10.1,24.8,23.8,24.8C462.8,499.2,467.7,498,471.7,496.6 M413.5,465.6
		h-21.8c0.9-6.9,5.3-11.5,11.5-11.5C409.7,454.2,413.7,458.6,413.5,465.6 M424.6,468.2c0-12.2-6.3-22.2-21-22.2
		c-15,0-23.4,11.6-23.4,27c0,18.1,8.8,26.3,24.8,26.3c6.3,0,12.6-1.1,17.8-3.3l-1-8.8c-4.2,2.1-9.7,3.3-15,3.3
		c-10.2,0-15.5-5.4-15.2-17.2h32.7C424.5,471.4,424.6,469.7,424.6,468.2 M379.7,428.7h-55.4v18.4h8.1c0.6-3.6,1.1-6.6,1.3-9.2h12.7
		v52.3c-3.1,0.2-6.3,0.7-9,1.3v6.8h29.2v-6.8c-2.7-0.6-5.9-1.1-9-1.3v-52.3h12.6c0.2,2.6,0.8,5.6,1.4,9.2h8.1L379.7,428.7
		L379.7,428.7z M300.9,498.4h19.6v-6.8c-2.6-0.6-5.6-1.1-8.6-1.3v-27.8c0-9.1-3.7-16.4-15.4-16.4c-8.6,0-14.8,4.5-17.8,11.1
		l-0.2-0.1c0.5-2.9,0.8-7.3,0.8-10c-6.3-0.3-13.7,0.1-19.5,0.7v6.8c3,0.2,6.5,0.6,9,1v34.6c-3.1,0.2-6.3,0.7-9,1.3v6.8h27.9v-6.9
		c-2.4-0.6-5.3-1-7.9-1.2v-16.6c0-10.2,5.8-18.4,13.4-18.4c5.9,0,7.6,3.7,7.6,10.1v33.1H300.9z M255,498.4v-6.8
		c-2.5-0.6-5.6-1.1-8.6-1.3v-43.2c-6.7-0.3-14.1,0.1-19.9,0.7v6.8c3,0.2,6.5,0.6,9,1v34.6c-3.1,0.2-6.3,0.7-9,1.3v6.8H255V498.4z
		 M248,432.5c0-3.9-3.2-6.9-7.1-6.9s-7,3.1-7,6.9s3.1,6.9,7,6.9S248,436.3,248,432.5 M201.9,476.3c0,7.3-5.1,14.6-12.6,14.6
		c-4.3,0-7-2.5-7-6.4c0-5,4.6-9.2,19.6-9.2V476.3z M221.5,497.6v-6.8c-2.7-0.2-6.1-0.6-8.6-1v-26.4c0-10.5-4.3-17.4-20-17.4
		c-6.6,0-12.7,1.1-17.8,2.8v14.6h6.9c0.4-2.7,0.9-5.3,1.1-7.6c2.6-0.7,5.6-1.1,8.5-1.1c7.8,0,10.2,3.4,10.2,9.8v3.6
		c-18.5,0.1-30.2,6.6-30.2,18.4c0,8.2,5.6,13.1,14.3,13.1c8.2,0,14.6-4.5,17-10.6l0.1,0.1c-0.4,2.8-0.5,6.2-0.5,9.5
		C208.6,498.7,216.1,498.3,221.5,497.6 M167.2,446c-10.6-0.9-15.8,5.5-18.2,12.4h-0.1c0.6-3.9,1-8.5,1-11.4
		c-6.3-0.3-13.7,0.1-19.5,0.7v6.8c3,0.2,6.5,0.6,9,1v34.6c-3.1,0.2-6.3,0.7-9,1.3v6.8h28.9v-6.8c-2.7-0.6-5.9-1.1-9-1.3v-12.7
		c0-15.4,5.1-22.5,16.3-20.6L167.2,446z M110.9,477.5c0,7-4.9,12-15.1,12c-3.6,0-6.4-0.2-8.2-0.5v-22.2c1.5-0.1,5.2-0.1,6.3-0.1
		C103.7,466.7,110.9,469.6,110.9,477.5 M109.5,447.1c0,7-5.5,11.3-15.9,11.3c-2.3,0-4.2,0-6-0.1v-20.6c2.7-0.1,5.7-0.2,8.8-0.2
		C106.4,437.4,109.5,441.4,109.5,447.1 M122.7,477.3c0-7.2-4.2-14.1-13.3-15.9v-0.2c7.1-2.5,11.9-8.8,11.9-15.9
		c0-10.7-7.8-16.9-23-16.9c-8.4,0-16.8,0.3-22.1,0.3h-8.7v6.8c2.7,0.6,5.9,1.1,9,1.3v53.4c-3.1,0.2-6.3,0.7-9,1.3v6.8h9
		c7.6,0,14.7,0.3,18.9,0.3C116.7,498.7,122.7,486.4,122.7,477.3 M60.1,467.9H35.3v8.9h24.8V467.9z M28.5,498.4v-6.8
		c-2.5-0.6-5.6-1.1-8.6-1.3v-43.2c-6.7-0.3-14.1,0.1-19.9,0.7v6.8c3,0.2,6.5,0.6,9,1v34.6c-3.1,0.2-6.3,0.7-9,1.3v6.8h28.5V498.4z
		 M21.6,432.5c0-3.9-3.2-6.9-7.1-6.9s-7,3.1-7,6.9s3.1,6.9,7,6.9S21.6,436.3,21.6,432.5"/>
</g>
</svg>
